<?xml version="1.0" encoding="UTF-8"?>
<svg xmlns="http://www.w3.org/2000/svg" xmlns:xlink="http://www.w3.org/1999/xlink"
     width="5000.0" height="10000.0" viewBox="0.0 0.0 5.0 10.0" displayInline="False">
<defs>
</defs>
<rect x="0" y="0" width="5.0" height="10.0" fill="#545454" fill-opacity="1.0" />
<path d="M4.4,8.75 L4.4,1.5" fill="none" stroke="#000000" stroke-width="0.8" />
<path d="M4.4,8.75 L4.4,1.5" fill="none" stroke="#ffffff" stroke-width="0.02" style="stroke-miterlimit:4;stroke-dasharray:0.16,0.16;stroke-dashoffset:0" />
<path d="M4.78,8.75 L4.78,1.5" fill="none" stroke="#ffffff" stroke-width="0.02" />
<path d="M4.0200000000000005,8.75 L4.0200000000000005,1.5" fill="none" stroke="#ffffff" stroke-width="0.02" />
<path d="M4.4,1.5 A1.0,1.0,0,0,0,3.4000000000000004,0.5" fill="none" stroke="#000000" stroke-width="0.8" />
<path d="M4.0200000000000005,1.5 A0.62,0.62,0,0,0,3.4000000000000004,0.88" fill="none" stroke="#ffffff" stroke-width="0.02" />
<path d="M4.78,1.5 A1.38,1.38,0,0,0,3.4000000000000004,0.1200000000000001" fill="none" stroke="#ffffff" stroke-width="0.02" />
<path d="M4.4,1.5 A1.0,1.0,0,0,0,3.4000000000000004,0.5" fill="none" stroke="#ffffff" stroke-width="0.02" style="stroke-miterlimit:4;stroke-dasharray:0.16,0.16;stroke-dashoffset:0" />
<path d="M3.4000000000000004,0.5 L1.5000000000000004,0.5" fill="none" stroke="#000000" stroke-width="0.8" />
<path d="M3.4000000000000004,0.5 L1.5000000000000004,0.5" fill="none" stroke="#ffffff" stroke-width="0.02" style="stroke-miterlimit:4;stroke-dasharray:0.16,0.16;stroke-dashoffset:0" />
<path d="M3.4000000000000004,0.11999999999999922 L1.5000000000000004,0.11999999999999922" fill="none" stroke="#ffffff" stroke-width="0.02" />
<path d="M3.4000000000000004,0.8800000000000008 L1.5000000000000004,0.8800000000000008" fill="none" stroke="#ffffff" stroke-width="0.02" />
<path d="M1.5000000000000002,0.5 A1.0,1.0,0,1,0,2.0000000000000004,2.3660254037844384" fill="none" stroke="#000000" stroke-width="0.8" />
<path d="M1.5000000000000002,0.88 A0.62,0.62,0,1,0,1.8100000000000003,2.036935750346352" fill="none" stroke="#ffffff" stroke-width="0.02" />
<path d="M1.5000000000000002,0.1200000000000001 A1.38,1.38,0,1,0,2.1900000000000004,2.695115057222525" fill="none" stroke="#ffffff" stroke-width="0.02" />
<path d="M1.5000000000000002,0.5 A1.0,1.0,0,1,0,2.0000000000000004,2.3660254037844384" fill="none" stroke="#ffffff" stroke-width="0.02" style="stroke-miterlimit:4;stroke-dasharray:0.16,0.16;stroke-dashoffset:0" />
<path d="M2.0000000000000018,2.3660254037844375 A1.0,1.0,0,0,1,3.2071067811865483,3.9391575887554247" fill="none" stroke="#000000" stroke-width="0.8" />
<path d="M2.1900000000000013,2.6951150572225244 A0.62,0.62,0,0,1,2.93840620433566,3.6704570119045363" fill="none" stroke="#ffffff" stroke-width="0.02" />
<path d="M1.810000000000002,2.036935750346351 A1.38,1.38,0,0,1,3.4758073580374362,4.2078581656063125" fill="none" stroke="#ffffff" stroke-width="0.02" />
<path d="M2.0000000000000018,2.3660254037844375 A1.0,1.0,0,0,1,3.2071067811865483,3.9391575887554247" fill="none" stroke="#ffffff" stroke-width="0.02" style="stroke-miterlimit:4;stroke-dasharray:0.16,0.16;stroke-dashoffset:0" />
<path d="M3.2071067811865483,3.9391575887554247 L0.8029437251522871,6.343320644789687" fill="none" stroke="#000000" stroke-width="0.8" />
<path d="M3.2071067811865483,3.9391575887554247 L0.8029437251522871,6.343320644789687" fill="none" stroke="#ffffff" stroke-width="0.02" style="stroke-miterlimit:4;stroke-dasharray:0.16,0.16;stroke-dashoffset:0" />
<path d="M2.93840620433566,3.6704570119045368 L0.5342431483013987,6.074620067938799" fill="none" stroke="#ffffff" stroke-width="0.02" />
<path d="M3.4758073580374367,4.2078581656063125 L1.0716443020031754,6.612021221640575" fill="none" stroke="#ffffff" stroke-width="0.02" />
<path d="M0.8029437251522871,6.343320644789686 A1.0,1.0,0,0,0,0.5100505063388345,7.050427425976234" fill="none" stroke="#000000" stroke-width="0.8" />
<path d="M1.0716443020031752,6.612021221640575 A0.62,0.62,0,0,0,0.8900505063388345,7.050427425976234" fill="none" stroke="#ffffff" stroke-width="0.02" />
<path d="M0.5342431483013991,6.074620067938798 A1.38,1.38,0,0,0,0.13005050633883464,7.050427425976234" fill="none" stroke="#ffffff" stroke-width="0.02" />
<path d="M0.8029437251522871,6.343320644789686 A1.0,1.0,0,0,0,0.5100505063388345,7.050427425976234" fill="none" stroke="#ffffff" stroke-width="0.02" style="stroke-miterlimit:4;stroke-dasharray:0.16,0.16;stroke-dashoffset:0" />
<path d="M0.5100505063388345,7.050427425976234 L0.5100505063388345,7.150427425976234" fill="none" stroke="#000000" stroke-width="0.8" />
<path d="M0.5100505063388345,7.050427425976234 L0.5100505063388345,7.150427425976234" fill="none" stroke="#ffffff" stroke-width="0.02" style="stroke-miterlimit:4;stroke-dasharray:0.16,0.16;stroke-dashoffset:0" />
<path d="M0.13005050633883453,7.050427425976234 L0.13005050633883453,7.150427425976234" fill="none" stroke="#ffffff" stroke-width="0.02" />
<path d="M0.8900505063388345,7.050427425976234 L0.8900505063388345,7.150427425976234" fill="none" stroke="#ffffff" stroke-width="0.02" />
<path d="M0.5100505063388345,7.150427425976234 A1.0,1.0,0,0,0,0.8029437251522868,7.857534207162782" fill="none" stroke="#000000" stroke-width="0.8" />
<path d="M0.8900505063388345,7.150427425976234 A0.62,0.62,0,0,0,1.071644302003175,7.5888336303118935" fill="none" stroke="#ffffff" stroke-width="0.02" />
<path d="M0.13005050633883464,7.150427425976234 A1.38,1.38,0,0,0,0.5342431483013989,8.12623478401367" fill="none" stroke="#ffffff" stroke-width="0.02" />
<path d="M0.5100505063388345,7.150427425976234 A1.0,1.0,0,0,0,0.8029437251522868,7.857534207162782" fill="none" stroke="#ffffff" stroke-width="0.02" style="stroke-miterlimit:4;stroke-dasharray:0.16,0.16;stroke-dashoffset:0" />
<path d="M0.802943725152287,7.857534207162781 L2.217157287525382,9.271747769535876" fill="none" stroke="#000000" stroke-width="0.8" />
<path d="M0.802943725152287,7.857534207162781 L2.217157287525382,9.271747769535876" fill="none" stroke="#ffffff" stroke-width="0.02" style="stroke-miterlimit:4;stroke-dasharray:0.16,0.16;stroke-dashoffset:0" />
<path d="M0.5342431483013989,8.12623478401367 L1.9484567106744937,9.540448346386764" fill="none" stroke="#ffffff" stroke-width="0.02" />
<path d="M1.071644302003175,7.5888336303118935 L2.48585786437627,9.003047192684988" fill="none" stroke="#ffffff" stroke-width="0.02" />
<path d="M2.2171572875253824,9.271747769535878 A0.75,0.75,0,0,0,2.747487373415293,9.491417683645967" fill="none" stroke="#000000" stroke-width="0.8" />
<path d="M2.4858578643762703,9.003047192684988 A0.37,0.37,0,0,0,2.747487373415293,9.111417683645966" fill="none" stroke="#ffffff" stroke-width="0.02" />
<path d="M1.948456710674494,9.540448346386766 A1.13,1.13,0,0,0,2.747487373415293,9.871417683645966" fill="none" stroke="#ffffff" stroke-width="0.02" />
<path d="M2.2171572875253824,9.271747769535878 A0.75,0.75,0,0,0,2.747487373415293,9.491417683645967" fill="none" stroke="#ffffff" stroke-width="0.02" style="stroke-miterlimit:4;stroke-dasharray:0.16,0.16;stroke-dashoffset:0" />
<path d="M2.747487373415293,9.491417683645967 L3.647487373415293,9.491417683645967" fill="none" stroke="#000000" stroke-width="0.8" />
<path d="M2.747487373415293,9.491417683645967 L3.647487373415293,9.491417683645967" fill="none" stroke="#ffffff" stroke-width="0.02" style="stroke-miterlimit:4;stroke-dasharray:0.16,0.16;stroke-dashoffset:0" />
<path d="M2.747487373415293,9.871417683645966 L3.647487373415293,9.871417683645966" fill="none" stroke="#ffffff" stroke-width="0.02" />
<path d="M2.747487373415293,9.111417683645966 L3.647487373415293,9.111417683645966" fill="none" stroke="#ffffff" stroke-width="0.02" />
<path d="M3.647487373415293,9.491417683645967 A0.75,0.75,0,0,0,4.397487373415293,8.741417683645967" fill="none" stroke="#000000" stroke-width="0.8" />
<path d="M3.647487373415293,9.111417683645966 A0.37,0.37,0,0,0,4.0174873734152925,8.741417683645967" fill="none" stroke="#ffffff" stroke-width="0.02" />
<path d="M3.647487373415293,9.871417683645966 A1.13,1.13,0,0,0,4.777487373415292,8.741417683645967" fill="none" stroke="#ffffff" stroke-width="0.02" />
<path d="M3.647487373415293,9.491417683645967 A0.75,0.75,0,0,0,4.397487373415293,8.741417683645967" fill="none" stroke="#ffffff" stroke-width="0.02" style="stroke-miterlimit:4;stroke-dasharray:0.16,0.16;stroke-dashoffset:0" />
<circle cx="4.4" cy="8.75" r="0.01" fill="red" stroke-width="0" stroke="#000000" />
<text x="4.432" y="8.75" font-size="0.1" fill="red"><tspan x="4.432" dy="0em">4.400</tspan><tspan x="4.432" dy="1em">1.250</tspan></text>
<circle cx="4.78" cy="8.75" r="0.01" fill="red" stroke-width="0" stroke="#000000" />
<text x="4.812" y="8.75" font-size="0.1" fill="red"><tspan x="4.812" dy="0em">4.780</tspan><tspan x="4.812" dy="1em">1.250</tspan></text>
<circle cx="4.0200000000000005" cy="8.75" r="0.01" fill="red" stroke-width="0" stroke="#000000" />
<text x="4.0520000000000005" y="8.75" font-size="0.1" fill="red"><tspan x="4.0520000000000005" dy="0em">4.020</tspan><tspan x="4.0520000000000005" dy="1em">1.250</tspan></text>
<path d="M4.4,1.5 A1.0,1.0,0,0,0,3.4000000000000004,0.5 L3.4000000000000004,1.5 A0,0,0,0,0,3.4000000000000004,1.5 Z" fill="none" stroke="blue" stroke-width="0.02" />
<circle cx="3.4000000000000004" cy="1.5" r="0.01" fill="red" stroke-width="0" stroke="#000000" />
<text x="3.4320000000000004" y="1.5" font-size="0.1" fill="red"><tspan x="3.4320000000000004" dy="0em">3.400</tspan><tspan x="3.4320000000000004" dy="1em">8.500</tspan><tspan x="3.4320000000000004" dy="1em">r=1.000</tspan><tspan x="3.4320000000000004" dy="1em">a=90.0°</tspan></text>
<circle cx="4.4" cy="1.5" r="0.01" fill="red" stroke-width="0" stroke="#000000" />
<text x="4.432" y="1.5" font-size="0.1" fill="red"><tspan x="4.432" dy="0em">4.400</tspan><tspan x="4.432" dy="1em">8.500</tspan></text>
<circle cx="4.78" cy="1.5" r="0.01" fill="red" stroke-width="0" stroke="#000000" />
<text x="4.812" y="1.5" font-size="0.1" fill="red"><tspan x="4.812" dy="0em">4.780</tspan><tspan x="4.812" dy="1em">8.500</tspan></text>
<circle cx="4.0200000000000005" cy="1.5" r="0.01" fill="red" stroke-width="0" stroke="#000000" />
<text x="4.0520000000000005" y="1.5" font-size="0.1" fill="red"><tspan x="4.0520000000000005" dy="0em">4.020</tspan><tspan x="4.0520000000000005" dy="1em">8.500</tspan></text>
<circle cx="3.4000000000000004" cy="0.5" r="0.01" fill="red" stroke-width="0" stroke="#000000" />
<text x="3.4320000000000004" y="0.5" font-size="0.1" fill="red"><tspan x="3.4320000000000004" dy="0em">3.400</tspan><tspan x="3.4320000000000004" dy="1em">9.500</tspan></text>
<circle cx="3.4000000000000004" cy="0.11999999999999922" r="0.01" fill="red" stroke-width="0" stroke="#000000" />
<text x="3.4320000000000004" y="0.11999999999999922" font-size="0.1" fill="red"><tspan x="3.4320000000000004" dy="0em">3.400</tspan><tspan x="3.4320000000000004" dy="1em">9.880</tspan></text>
<circle cx="3.4000000000000004" cy="0.8800000000000008" r="0.01" fill="red" stroke-width="0" stroke="#000000" />
<text x="3.4320000000000004" y="0.8800000000000008" font-size="0.1" fill="red"><tspan x="3.4320000000000004" dy="0em">3.400</tspan><tspan x="3.4320000000000004" dy="1em">9.120</tspan></text>
<path d="M1.5000000000000002,0.5 A1.0,1.0,0,1,0,2.0000000000000004,2.3660254037844384 L1.5000000000000002,1.5 A0,0,0,1,0,1.5000000000000002,1.5 Z" fill="none" stroke="blue" stroke-width="0.02" />
<circle cx="1.5000000000000002" cy="1.5" r="0.01" fill="red" stroke-width="0" stroke="#000000" />
<text x="1.5320000000000003" y="1.5" font-size="0.1" fill="red"><tspan x="1.5320000000000003" dy="0em">1.500</tspan><tspan x="1.5320000000000003" dy="1em">8.500</tspan><tspan x="1.5320000000000003" dy="1em">r=1.000</tspan><tspan x="1.5320000000000003" dy="1em">a=210.0°</tspan></text>
<circle cx="1.5000000000000004" cy="0.5" r="0.01" fill="red" stroke-width="0" stroke="#000000" />
<text x="1.5320000000000005" y="0.5" font-size="0.1" fill="red"><tspan x="1.5320000000000005" dy="0em">1.500</tspan><tspan x="1.5320000000000005" dy="1em">9.500</tspan></text>
<circle cx="1.5000000000000004" cy="0.11999999999999922" r="0.01" fill="red" stroke-width="0" stroke="#000000" />
<text x="1.5320000000000005" y="0.11999999999999922" font-size="0.1" fill="red"><tspan x="1.5320000000000005" dy="0em">1.500</tspan><tspan x="1.5320000000000005" dy="1em">9.880</tspan></text>
<circle cx="1.5000000000000004" cy="0.8800000000000008" r="0.01" fill="red" stroke-width="0" stroke="#000000" />
<text x="1.5320000000000005" y="0.8800000000000008" font-size="0.1" fill="red"><tspan x="1.5320000000000005" dy="0em">1.500</tspan><tspan x="1.5320000000000005" dy="1em">9.120</tspan></text>
<path d="M2.0000000000000018,2.3660254037844375 A1.0,1.0,0,0,1,3.2071067811865483,3.9391575887554247 L2.500000000000001,3.2320508075688767 A0,0,0,0,1,2.500000000000001,3.2320508075688767 Z" fill="none" stroke="blue" stroke-width="0.02" />
<circle cx="2.500000000000001" cy="3.2320508075688767" r="0.01" fill="red" stroke-width="0" stroke="#000000" />
<text x="2.532000000000001" y="3.2320508075688767" font-size="0.1" fill="red"><tspan x="2.532000000000001" dy="0em">2.500</tspan><tspan x="2.532000000000001" dy="1em">6.768</tspan><tspan x="2.532000000000001" dy="1em">r=1.000</tspan><tspan x="2.532000000000001" dy="1em">a=165.0°</tspan></text>
<circle cx="2.0000000000000004" cy="2.3660254037844384" r="0.01" fill="red" stroke-width="0" stroke="#000000" />
<text x="2.0320000000000005" y="2.3660254037844384" font-size="0.1" fill="red"><tspan x="2.0320000000000005" dy="0em">2.000</tspan><tspan x="2.0320000000000005" dy="1em">7.634</tspan></text>
<circle cx="2.1900000000000004" cy="2.695115057222525" r="0.01" fill="red" stroke-width="0" stroke="#000000" />
<text x="2.2220000000000004" y="2.695115057222525" font-size="0.1" fill="red"><tspan x="2.2220000000000004" dy="0em">2.190</tspan><tspan x="2.2220000000000004" dy="1em">7.305</tspan></text>
<circle cx="1.8100000000000003" cy="2.036935750346352" r="0.01" fill="red" stroke-width="0" stroke="#000000" />
<text x="1.8420000000000003" y="2.036935750346352" font-size="0.1" fill="red"><tspan x="1.8420000000000003" dy="0em">1.810</tspan><tspan x="1.8420000000000003" dy="1em">7.963</tspan></text>
<circle cx="3.2071067811865483" cy="3.9391575887554247" r="0.01" fill="red" stroke-width="0" stroke="#000000" />
<text x="3.2391067811865484" y="3.9391575887554247" font-size="0.1" fill="red"><tspan x="3.2391067811865484" dy="0em">3.207</tspan><tspan x="3.2391067811865484" dy="1em">6.061</tspan></text>
<circle cx="2.93840620433566" cy="3.6704570119045368" r="0.01" fill="red" stroke-width="0" stroke="#000000" />
<text x="2.97040620433566" y="3.6704570119045368" font-size="0.1" fill="red"><tspan x="2.97040620433566" dy="0em">2.938</tspan><tspan x="2.97040620433566" dy="1em">6.330</tspan></text>
<circle cx="3.4758073580374367" cy="4.2078581656063125" r="0.01" fill="red" stroke-width="0" stroke="#000000" />
<text x="3.5078073580374367" y="4.2078581656063125" font-size="0.1" fill="red"><tspan x="3.5078073580374367" dy="0em">3.476</tspan><tspan x="3.5078073580374367" dy="1em">5.792</tspan></text>
<path d="M0.8029437251522871,6.343320644789686 A1.0,1.0,0,0,0,0.5100505063388345,7.050427425976234 L1.5100505063388345,7.050427425976234 A0,0,0,0,0,1.5100505063388345,7.050427425976234 Z" fill="none" stroke="blue" stroke-width="0.02" />
<circle cx="1.5100505063388345" cy="7.050427425976234" r="0.01" fill="red" stroke-width="0" stroke="#000000" />
<text x="1.5420505063388346" y="7.050427425976234" font-size="0.1" fill="red"><tspan x="1.5420505063388346" dy="0em">1.510</tspan><tspan x="1.5420505063388346" dy="1em">2.950</tspan><tspan x="1.5420505063388346" dy="1em">r=1.000</tspan><tspan x="1.5420505063388346" dy="1em">a=45.0°</tspan></text>
<circle cx="0.8029437251522871" cy="6.343320644789687" r="0.01" fill="red" stroke-width="0" stroke="#000000" />
<text x="0.8349437251522871" y="6.343320644789687" font-size="0.1" fill="red"><tspan x="0.8349437251522871" dy="0em">0.803</tspan><tspan x="0.8349437251522871" dy="1em">3.657</tspan></text>
<circle cx="0.534243148301399" cy="6.074620067938798" r="0.01" fill="red" stroke-width="0" stroke="#000000" />
<text x="0.566243148301399" y="6.074620067938798" font-size="0.1" fill="red"><tspan x="0.566243148301399" dy="0em">0.534</tspan><tspan x="0.566243148301399" dy="1em">3.925</tspan></text>
<circle cx="1.0716443020031752" cy="6.612021221640575" r="0.01" fill="red" stroke-width="0" stroke="#000000" />
<text x="1.1036443020031752" y="6.612021221640575" font-size="0.1" fill="red"><tspan x="1.1036443020031752" dy="0em">1.072</tspan><tspan x="1.1036443020031752" dy="1em">3.388</tspan></text>
<circle cx="0.5100505063388345" cy="7.050427425976234" r="0.01" fill="red" stroke-width="0" stroke="#000000" />
<text x="0.5420505063388346" y="7.050427425976234" font-size="0.1" fill="red"><tspan x="0.5420505063388346" dy="0em">0.510</tspan><tspan x="0.5420505063388346" dy="1em">2.950</tspan></text>
<circle cx="0.13005050633883453" cy="7.050427425976234" r="0.01" fill="red" stroke-width="0" stroke="#000000" />
<text x="0.16205050633883453" y="7.050427425976234" font-size="0.1" fill="red"><tspan x="0.16205050633883453" dy="0em">0.130</tspan><tspan x="0.16205050633883453" dy="1em">2.950</tspan></text>
<circle cx="0.8900505063388345" cy="7.050427425976234" r="0.01" fill="red" stroke-width="0" stroke="#000000" />
<text x="0.9220505063388346" y="7.050427425976234" font-size="0.1" fill="red"><tspan x="0.9220505063388346" dy="0em">0.890</tspan><tspan x="0.9220505063388346" dy="1em">2.950</tspan></text>
<path d="M0.5100505063388345,7.150427425976234 A1.0,1.0,0,0,0,0.8029437251522868,7.857534207162782 L1.5100505063388345,7.150427425976234 A0,0,0,0,0,1.5100505063388345,7.150427425976234 Z" fill="none" stroke="blue" stroke-width="0.02" />
<circle cx="1.5100505063388345" cy="7.150427425976234" r="0.01" fill="red" stroke-width="0" stroke="#000000" />
<text x="1.5420505063388346" y="7.150427425976234" font-size="0.1" fill="red"><tspan x="1.5420505063388346" dy="0em">1.510</tspan><tspan x="1.5420505063388346" dy="1em">2.850</tspan><tspan x="1.5420505063388346" dy="1em">r=1.000</tspan><tspan x="1.5420505063388346" dy="1em">a=45.0°</tspan></text>
<circle cx="0.5100505063388345" cy="7.150427425976234" r="0.01" fill="red" stroke-width="0" stroke="#000000" />
<text x="0.5420505063388346" y="7.150427425976234" font-size="0.1" fill="red"><tspan x="0.5420505063388346" dy="0em">0.510</tspan><tspan x="0.5420505063388346" dy="1em">2.850</tspan></text>
<circle cx="0.13005050633883453" cy="7.150427425976234" r="0.01" fill="red" stroke-width="0" stroke="#000000" />
<text x="0.16205050633883453" y="7.150427425976234" font-size="0.1" fill="red"><tspan x="0.16205050633883453" dy="0em">0.130</tspan><tspan x="0.16205050633883453" dy="1em">2.850</tspan></text>
<circle cx="0.8900505063388345" cy="7.150427425976234" r="0.01" fill="red" stroke-width="0" stroke="#000000" />
<text x="0.9220505063388346" y="7.150427425976234" font-size="0.1" fill="red"><tspan x="0.9220505063388346" dy="0em">0.890</tspan><tspan x="0.9220505063388346" dy="1em">2.850</tspan></text>
<circle cx="0.802943725152287" cy="7.857534207162781" r="0.01" fill="red" stroke-width="0" stroke="#000000" />
<text x="0.834943725152287" y="7.857534207162781" font-size="0.1" fill="red"><tspan x="0.834943725152287" dy="0em">0.803</tspan><tspan x="0.834943725152287" dy="1em">2.142</tspan></text>
<circle cx="0.5342431483013989" cy="8.12623478401367" r="0.01" fill="red" stroke-width="0" stroke="#000000" />
<text x="0.5662431483013989" y="8.12623478401367" font-size="0.1" fill="red"><tspan x="0.5662431483013989" dy="0em">0.534</tspan><tspan x="0.5662431483013989" dy="1em">1.874</tspan></text>
<circle cx="1.071644302003175" cy="7.5888336303118935" r="0.01" fill="red" stroke-width="0" stroke="#000000" />
<text x="1.103644302003175" y="7.5888336303118935" font-size="0.1" fill="red"><tspan x="1.103644302003175" dy="0em">1.072</tspan><tspan x="1.103644302003175" dy="1em">2.411</tspan></text>
<path d="M2.2171572875253824,9.271747769535878 A0.75,0.75,0,0,0,2.747487373415293,9.491417683645967 L2.747487373415293,8.741417683645967 A0,0,0,0,0,2.747487373415293,8.741417683645967 Z" fill="none" stroke="blue" stroke-width="0.02" />
<circle cx="2.747487373415293" cy="8.741417683645967" r="0.01" fill="red" stroke-width="0" stroke="#000000" />
<text x="2.779487373415293" y="8.741417683645967" font-size="0.1" fill="red"><tspan x="2.779487373415293" dy="0em">2.747</tspan><tspan x="2.779487373415293" dy="1em">1.259</tspan><tspan x="2.779487373415293" dy="1em">r=0.750</tspan><tspan x="2.779487373415293" dy="1em">a=45.0°</tspan></text>
<circle cx="2.217157287525382" cy="9.271747769535876" r="0.01" fill="red" stroke-width="0" stroke="#000000" />
<text x="2.249157287525382" y="9.271747769535876" font-size="0.1" fill="red"><tspan x="2.249157287525382" dy="0em">2.217</tspan><tspan x="2.249157287525382" dy="1em">0.728</tspan></text>
<circle cx="1.9484567106744939" cy="9.540448346386764" r="0.01" fill="red" stroke-width="0" stroke="#000000" />
<text x="1.980456710674494" y="9.540448346386764" font-size="0.1" fill="red"><tspan x="1.980456710674494" dy="0em">1.948</tspan><tspan x="1.980456710674494" dy="1em">0.460</tspan></text>
<circle cx="2.4858578643762703" cy="9.003047192684988" r="0.01" fill="red" stroke-width="0" stroke="#000000" />
<text x="2.5178578643762703" y="9.003047192684988" font-size="0.1" fill="red"><tspan x="2.5178578643762703" dy="0em">2.486</tspan><tspan x="2.5178578643762703" dy="1em">0.997</tspan></text>
<circle cx="2.747487373415293" cy="9.491417683645967" r="0.01" fill="red" stroke-width="0" stroke="#000000" />
<text x="2.779487373415293" y="9.491417683645967" font-size="0.1" fill="red"><tspan x="2.779487373415293" dy="0em">2.747</tspan><tspan x="2.779487373415293" dy="1em">0.509</tspan></text>
<circle cx="2.747487373415293" cy="9.871417683645966" r="0.01" fill="red" stroke-width="0" stroke="#000000" />
<text x="2.779487373415293" y="9.871417683645966" font-size="0.1" fill="red"><tspan x="2.779487373415293" dy="0em">2.747</tspan><tspan x="2.779487373415293" dy="1em">0.129</tspan></text>
<circle cx="2.747487373415293" cy="9.111417683645966" r="0.01" fill="red" stroke-width="0" stroke="#000000" />
<text x="2.779487373415293" y="9.111417683645966" font-size="0.1" fill="red"><tspan x="2.779487373415293" dy="0em">2.747</tspan><tspan x="2.779487373415293" dy="1em">0.889</tspan></text>
<path d="M3.647487373415293,9.491417683645967 A0.75,0.75,0,0,0,4.397487373415293,8.741417683645967 L3.647487373415293,8.741417683645967 A0,0,0,0,0,3.647487373415293,8.741417683645967 Z" fill="none" stroke="blue" stroke-width="0.02" />
<circle cx="3.647487373415293" cy="8.741417683645967" r="0.01" fill="red" stroke-width="0" stroke="#000000" />
<text x="3.679487373415293" y="8.741417683645967" font-size="0.1" fill="red"><tspan x="3.679487373415293" dy="0em">3.647</tspan><tspan x="3.679487373415293" dy="1em">1.259</tspan><tspan x="3.679487373415293" dy="1em">r=0.750</tspan><tspan x="3.679487373415293" dy="1em">a=90.0°</tspan></text>
<circle cx="3.647487373415293" cy="9.491417683645967" r="0.01" fill="red" stroke-width="0" stroke="#000000" />
<text x="3.679487373415293" y="9.491417683645967" font-size="0.1" fill="red"><tspan x="3.679487373415293" dy="0em">3.647</tspan><tspan x="3.679487373415293" dy="1em">0.509</tspan></text>
<circle cx="3.647487373415293" cy="9.871417683645966" r="0.01" fill="red" stroke-width="0" stroke="#000000" />
<text x="3.679487373415293" y="9.871417683645966" font-size="0.1" fill="red"><tspan x="3.679487373415293" dy="0em">3.647</tspan><tspan x="3.679487373415293" dy="1em">0.129</tspan></text>
<circle cx="3.647487373415293" cy="9.111417683645966" r="0.01" fill="red" stroke-width="0" stroke="#000000" />
<text x="3.679487373415293" y="9.111417683645966" font-size="0.1" fill="red"><tspan x="3.679487373415293" dy="0em">3.647</tspan><tspan x="3.679487373415293" dy="1em">0.889</tspan></text>
</svg>