<?xml version="1.0" encoding="UTF-8"?>
<svg xmlns="http://www.w3.org/2000/svg" xmlns:xlink="http://www.w3.org/1999/xlink"
     width="6000.0" height="7500.0" viewBox="0.0 0.0 6.0 7.5" displayInline="False">
<defs>
</defs>
<rect x="0" y="0" width="6.0" height="7.5" fill="#545454" fill-opacity="1.0" />
<path d="M5.3,6.1 L5.3,1.5999999999999996" fill="none" stroke="#000000" stroke-width="0.8" />
<path d="M5.3,6.1 L5.3,1.5999999999999996" fill="none" stroke="#ffffff" stroke-width="0.02" style="stroke-miterlimit:4;stroke-dasharray:0.16,0.16;stroke-dashoffset:0" />
<path d="M5.68,6.1 L5.68,1.5999999999999996" fill="none" stroke="#ffffff" stroke-width="0.02" />
<path d="M4.92,6.1 L4.92,1.5999999999999996" fill="none" stroke="#ffffff" stroke-width="0.02" />
<path d="M5.3,1.5999999999999996 A1.0,1.0,0,0,0,4.3,0.5999999999999996" fill="none" stroke="#000000" stroke-width="0.8" />
<path d="M4.92,1.5999999999999996 A0.62,0.62,0,0,0,4.3,0.9799999999999996" fill="none" stroke="#ffffff" stroke-width="0.02" />
<path d="M5.68,1.5999999999999996 A1.38,1.38,0,0,0,4.3,0.21999999999999975" fill="none" stroke="#ffffff" stroke-width="0.02" />
<path d="M5.3,1.5999999999999996 A1.0,1.0,0,0,0,4.3,0.5999999999999996" fill="none" stroke="#ffffff" stroke-width="0.02" style="stroke-miterlimit:4;stroke-dasharray:0.16,0.16;stroke-dashoffset:0" />
<path d="M4.3,0.5999999999999996 L1.6999999999999997,0.5999999999999996" fill="none" stroke="#000000" stroke-width="0.8" />
<path d="M4.3,0.5999999999999996 L1.6999999999999997,0.5999999999999996" fill="none" stroke="#ffffff" stroke-width="0.02" style="stroke-miterlimit:4;stroke-dasharray:0.16,0.16;stroke-dashoffset:0" />
<path d="M4.3,0.21999999999999975 L1.6999999999999997,0.21999999999999975" fill="none" stroke="#ffffff" stroke-width="0.02" />
<path d="M4.3,0.9799999999999995 L1.6999999999999997,0.9799999999999995" fill="none" stroke="#ffffff" stroke-width="0.02" />
<path d="M1.6999999999999995,0.5999999999999996 A1.0,1.0,0,1,0,2.1999999999999997,2.466025403784438" fill="none" stroke="#000000" stroke-width="0.8" />
<path d="M1.6999999999999995,0.9799999999999996 A0.62,0.62,0,1,0,2.01,2.1369357503463515" fill="none" stroke="#ffffff" stroke-width="0.02" />
<path d="M1.6999999999999995,0.21999999999999975 A1.38,1.38,0,1,0,2.3899999999999997,2.7951150572225245" fill="none" stroke="#ffffff" stroke-width="0.02" />
<path d="M1.6999999999999995,0.5999999999999996 A1.0,1.0,0,1,0,2.1999999999999997,2.466025403784438" fill="none" stroke="#ffffff" stroke-width="0.02" style="stroke-miterlimit:4;stroke-dasharray:0.16,0.16;stroke-dashoffset:0" />
<path d="M2.1999999999999997,2.466025403784438 L2.7196152422706628,2.166025403784438" fill="none" stroke="#000000" stroke-width="0.8" />
<path d="M2.1999999999999997,2.466025403784438 L2.7196152422706628,2.166025403784438" fill="none" stroke="#ffffff" stroke-width="0.02" style="stroke-miterlimit:4;stroke-dasharray:0.16,0.16;stroke-dashoffset:0" />
<path d="M2.3899999999999997,2.7951150572225245 L2.9096152422706627,2.4951150572225247" fill="none" stroke="#ffffff" stroke-width="0.02" />
<path d="M2.01,2.1369357503463515 L2.529615242270663,1.8369357503463517" fill="none" stroke="#ffffff" stroke-width="0.02" />
<path d="M2.719615242270664,2.1660254037844373 A1.0,1.0,0,1,1,3.642233504011363,3.9383585946055266" fill="none" stroke="#000000" stroke-width="0.8" />
<path d="M2.9096152422706636,2.4951150572225242 A0.62,0.62,0,1,1,3.481638564549897,3.5939616355315995" fill="none" stroke="#ffffff" stroke-width="0.02" />
<path d="M2.5296152422706646,1.8369357503463506 A1.38,1.38,0,1,1,3.8028284434728286,4.282755553679453" fill="none" stroke="#ffffff" stroke-width="0.02" />
<path d="M2.719615242270664,2.1660254037844373 A1.0,1.0,0,1,1,3.642233504011363,3.9383585946055266" fill="none" stroke="#ffffff" stroke-width="0.02" style="stroke-miterlimit:4;stroke-dasharray:0.16,0.16;stroke-dashoffset:0" />
<path d="M3.642233504011363,3.9383585946055266 L1.1045717003087434,5.1216897274794855" fill="none" stroke="#000000" stroke-width="0.8" />
<path d="M3.642233504011363,3.9383585946055266 L1.1045717003087434,5.1216897274794855" fill="none" stroke="#ffffff" stroke-width="0.02" style="stroke-miterlimit:4;stroke-dasharray:0.16,0.16;stroke-dashoffset:0" />
<path d="M3.481638564549897,3.5939616355315995 L0.9439767608472773,4.777292768405559" fill="none" stroke="#ffffff" stroke-width="0.02" />
<path d="M3.802828443472829,4.282755553679454 L1.2651666397702095,5.466086686553413" fill="none" stroke="#ffffff" stroke-width="0.02" />
<path d="M1.1045717003087439,5.1216897274794855 A1.0,1.0,0,0,0,1.527189962049443,7.0279975145161355" fill="none" stroke="#000000" stroke-width="0.8" />
<path d="M1.2651666397702095,5.466086686553412 A0.62,0.62,0,0,0,1.527189962049443,6.647997514516136" fill="none" stroke="#ffffff" stroke-width="0.02" />
<path d="M0.9439767608472781,4.777292768405559 A1.38,1.38,0,0,0,1.527189962049443,7.407997514516135" fill="none" stroke="#ffffff" stroke-width="0.02" />
<path d="M1.1045717003087439,5.1216897274794855 A1.0,1.0,0,0,0,1.527189962049443,7.0279975145161355" fill="none" stroke="#ffffff" stroke-width="0.02" style="stroke-miterlimit:4;stroke-dasharray:0.16,0.16;stroke-dashoffset:0" />
<path d="M1.5271899620494434,7.0279975145161355 L4.297189962049443,7.0279975145161355" fill="none" stroke="#000000" stroke-width="0.8" />
<path d="M1.5271899620494434,7.0279975145161355 L4.297189962049443,7.0279975145161355" fill="none" stroke="#ffffff" stroke-width="0.02" style="stroke-miterlimit:4;stroke-dasharray:0.16,0.16;stroke-dashoffset:0" />
<path d="M1.5271899620494434,7.407997514516135 L4.297189962049443,7.407997514516135" fill="none" stroke="#ffffff" stroke-width="0.02" />
<path d="M1.5271899620494434,6.647997514516136 L4.297189962049443,6.647997514516135" fill="none" stroke="#ffffff" stroke-width="0.02" />
<path d="M4.297189962049443,7.0279975145161355 A1.0,1.0,0,0,0,5.297189962049443,6.0279975145161355" fill="none" stroke="#000000" stroke-width="0.8" />
<path d="M4.297189962049443,6.647997514516136 A0.62,0.62,0,0,0,4.917189962049443,6.0279975145161355" fill="none" stroke="#ffffff" stroke-width="0.02" />
<path d="M4.297189962049443,7.407997514516135 A1.38,1.38,0,0,0,5.677189962049443,6.0279975145161355" fill="none" stroke="#ffffff" stroke-width="0.02" />
<path d="M4.297189962049443,7.0279975145161355 A1.0,1.0,0,0,0,5.297189962049443,6.0279975145161355" fill="none" stroke="#ffffff" stroke-width="0.02" style="stroke-miterlimit:4;stroke-dasharray:0.16,0.16;stroke-dashoffset:0" />
</svg>